<svg width="393" height="24" viewBox="0 0 393 24" fill="none" xmlns="http://www.w3.org/2000/svg">
<path d="M195.298 5.75781V15H194.073V5.75781H195.298ZM199.17 9.91553V10.9185H195.031V9.91553H199.17ZM199.798 5.75781V6.76074H195.031V5.75781H199.798ZM202.636 5.25V15H201.456V5.25H202.636ZM204.491 11.6421V11.4961C204.491 11.001 204.563 10.5418 204.706 10.1187C204.85 9.69124 205.058 9.32096 205.329 9.00781C205.599 8.69043 205.927 8.44499 206.312 8.27148C206.698 8.09375 207.129 8.00488 207.607 8.00488C208.09 8.00488 208.524 8.09375 208.909 8.27148C209.298 8.44499 209.628 8.69043 209.899 9.00781C210.174 9.32096 210.383 9.69124 210.527 10.1187C210.671 10.5418 210.743 11.001 210.743 11.4961V11.6421C210.743 12.1372 210.671 12.5964 210.527 13.0195C210.383 13.4427 210.174 13.813 209.899 14.1304C209.628 14.4435 209.3 14.689 208.915 14.8667C208.534 15.0402 208.102 15.127 207.62 15.127C207.138 15.127 206.704 15.0402 206.319 14.8667C205.934 14.689 205.604 14.4435 205.329 14.1304C205.058 13.813 204.85 13.4427 204.706 13.0195C204.563 12.5964 204.491 12.1372 204.491 11.6421ZM205.665 11.4961V11.6421C205.665 11.9849 205.705 12.3086 205.786 12.6133C205.866 12.9137 205.987 13.1803 206.147 13.4131C206.312 13.6458 206.518 13.8299 206.763 13.9653C207.009 14.0965 207.294 14.1621 207.62 14.1621C207.942 14.1621 208.223 14.0965 208.464 13.9653C208.71 13.8299 208.913 13.6458 209.074 13.4131C209.234 13.1803 209.355 12.9137 209.435 12.6133C209.52 12.3086 209.562 11.9849 209.562 11.6421V11.4961C209.562 11.1576 209.52 10.8381 209.435 10.5376C209.355 10.2329 209.232 9.96419 209.067 9.73145C208.907 9.49447 208.703 9.30827 208.458 9.17285C208.217 9.03743 207.933 8.96973 207.607 8.96973C207.286 8.96973 207.002 9.03743 206.757 9.17285C206.516 9.30827 206.312 9.49447 206.147 9.73145C205.987 9.96419 205.866 10.2329 205.786 10.5376C205.705 10.8381 205.665 11.1576 205.665 11.4961ZM214.235 13.7812L216 8.13184H216.774L216.622 9.25537L214.825 15H214.07L214.235 13.7812ZM213.048 8.13184L214.552 13.8447L214.66 15H213.867L211.874 8.13184H213.048ZM218.463 13.8003L219.897 8.13184H221.065L219.072 15H218.285L218.463 13.8003ZM216.945 8.13184L218.672 13.686L218.869 15H218.12L216.273 9.24268L216.12 8.13184H216.945ZM222.545 5.25H223.725V13.667L223.624 15H222.545V5.25ZM228.366 11.5088V11.6421C228.366 12.1414 228.306 12.6048 228.188 13.0322C228.069 13.4554 227.896 13.8236 227.667 14.1367C227.439 14.4499 227.16 14.6932 226.829 14.8667C226.499 15.0402 226.121 15.127 225.693 15.127C225.257 15.127 224.874 15.0529 224.544 14.9048C224.218 14.7524 223.943 14.5345 223.719 14.251C223.495 13.9674 223.315 13.6247 223.18 13.2227C223.048 12.8206 222.957 12.3678 222.907 11.8643V11.2803C222.957 10.7725 223.048 10.3175 223.18 9.91553C223.315 9.51351 223.495 9.17074 223.719 8.88721C223.943 8.59945 224.218 8.38151 224.544 8.2334C224.87 8.08105 225.249 8.00488 225.681 8.00488C226.112 8.00488 226.495 8.08952 226.829 8.25879C227.164 8.42383 227.443 8.66081 227.667 8.96973C227.896 9.27865 228.069 9.64893 228.188 10.0806C228.306 10.508 228.366 10.984 228.366 11.5088ZM227.185 11.6421V11.5088C227.185 11.166 227.153 10.8444 227.09 10.5439C227.026 10.2393 226.925 9.97266 226.785 9.74414C226.645 9.51139 226.461 9.32943 226.233 9.19824C226.004 9.06283 225.723 8.99512 225.389 8.99512C225.092 8.99512 224.834 9.0459 224.614 9.14746C224.398 9.24902 224.214 9.38656 224.062 9.56006C223.91 9.72933 223.785 9.92399 223.687 10.144C223.594 10.3599 223.524 10.5841 223.478 10.8169V12.3467C223.546 12.6429 223.656 12.9285 223.808 13.2036C223.965 13.4744 224.172 13.6966 224.43 13.8701C224.692 14.0436 225.016 14.1304 225.401 14.1304C225.719 14.1304 225.989 14.0669 226.214 13.9399C226.442 13.8088 226.626 13.6289 226.766 13.4004C226.91 13.1719 227.016 12.9074 227.083 12.6069C227.151 12.3065 227.185 11.9849 227.185 11.6421ZM234.181 13.8257V10.29C234.181 10.0192 234.126 9.78434 234.016 9.58545C233.91 9.38232 233.749 9.22575 233.533 9.11572C233.317 9.0057 233.051 8.95068 232.733 8.95068C232.437 8.95068 232.177 9.00146 231.953 9.10303C231.733 9.20459 231.559 9.33789 231.432 9.50293C231.31 9.66797 231.248 9.8457 231.248 10.0361H230.074C230.074 9.79069 230.137 9.54736 230.264 9.30615C230.391 9.06494 230.573 8.84701 230.81 8.65234C231.051 8.45345 231.339 8.29688 231.673 8.18262C232.012 8.06413 232.389 8.00488 232.803 8.00488C233.303 8.00488 233.743 8.08952 234.124 8.25879C234.509 8.42806 234.809 8.68408 235.025 9.02686C235.245 9.3654 235.355 9.79069 235.355 10.3027V13.502C235.355 13.7305 235.374 13.9738 235.412 14.2319C235.455 14.4901 235.516 14.7122 235.596 14.8984V15H234.371C234.312 14.8646 234.265 14.6847 234.232 14.4604C234.198 14.2319 234.181 14.0203 234.181 13.8257ZM234.384 10.8359L234.397 11.6611H233.21C232.875 11.6611 232.577 11.6886 232.315 11.7437C232.052 11.7944 231.832 11.8727 231.654 11.9785C231.477 12.0843 231.341 12.2176 231.248 12.3784C231.155 12.535 231.108 12.7191 231.108 12.9307C231.108 13.1465 231.157 13.3433 231.254 13.521C231.352 13.6987 231.498 13.8405 231.692 13.9463C231.891 14.0479 232.135 14.0986 232.422 14.0986C232.782 14.0986 233.1 14.0225 233.375 13.8701C233.65 13.7178 233.868 13.5316 234.028 13.3115C234.193 13.0915 234.282 12.8778 234.295 12.6704L234.796 13.2354C234.767 13.4131 234.686 13.6099 234.555 13.8257C234.424 14.0415 234.248 14.2489 234.028 14.4478C233.813 14.6424 233.554 14.8053 233.254 14.9365C232.958 15.0635 232.623 15.127 232.251 15.127C231.786 15.127 231.377 15.036 231.026 14.854C230.679 14.672 230.408 14.4287 230.213 14.124C230.023 13.8151 229.928 13.4702 229.928 13.0894C229.928 12.7212 230 12.3975 230.144 12.1182C230.288 11.8346 230.495 11.5998 230.766 11.4136C231.037 11.2231 231.362 11.0793 231.743 10.9819C232.124 10.8846 232.549 10.8359 233.019 10.8359H234.384ZM241.481 13.1782C241.481 13.009 241.443 12.8524 241.367 12.7085C241.295 12.5604 241.145 12.4271 240.916 12.3086C240.692 12.1859 240.354 12.0801 239.901 11.9912C239.52 11.9108 239.175 11.8156 238.866 11.7056C238.561 11.5955 238.301 11.4622 238.085 11.3057C237.874 11.1491 237.711 10.965 237.597 10.7534C237.482 10.5418 237.425 10.2943 237.425 10.0107C237.425 9.73991 237.484 9.48389 237.603 9.24268C237.726 9.00146 237.897 8.78776 238.117 8.60156C238.341 8.41536 238.61 8.26937 238.923 8.16357C239.236 8.05778 239.585 8.00488 239.971 8.00488C240.521 8.00488 240.99 8.10221 241.38 8.29688C241.769 8.49154 242.067 8.75179 242.275 9.07764C242.482 9.39925 242.586 9.75684 242.586 10.1504H241.411C241.411 9.95996 241.354 9.77588 241.24 9.59814C241.13 9.41618 240.967 9.26595 240.751 9.14746C240.54 9.02897 240.279 8.96973 239.971 8.96973C239.645 8.96973 239.38 9.02051 239.177 9.12207C238.978 9.2194 238.832 9.34424 238.739 9.49658C238.65 9.64893 238.606 9.80973 238.606 9.979C238.606 10.106 238.627 10.2202 238.669 10.3218C238.716 10.4191 238.796 10.5101 238.91 10.5947C239.025 10.6751 239.186 10.7513 239.393 10.8232C239.6 10.8952 239.865 10.9671 240.186 11.0391C240.749 11.166 241.213 11.3184 241.576 11.4961C241.94 11.6738 242.211 11.8918 242.389 12.1499C242.567 12.408 242.656 12.7212 242.656 13.0894C242.656 13.3898 242.592 13.6649 242.465 13.9146C242.342 14.1642 242.163 14.38 241.926 14.562C241.693 14.7397 241.414 14.8794 241.088 14.981C240.766 15.0783 240.404 15.127 240.002 15.127C239.397 15.127 238.885 15.019 238.466 14.8032C238.047 14.5874 237.73 14.3081 237.514 13.9653C237.298 13.6226 237.19 13.2607 237.19 12.8799H238.371C238.388 13.2015 238.481 13.4575 238.65 13.6479C238.819 13.8341 239.027 13.9674 239.272 14.0479C239.518 14.124 239.761 14.1621 240.002 14.1621C240.324 14.1621 240.593 14.1198 240.808 14.0352C241.028 13.9505 241.196 13.8341 241.31 13.686C241.424 13.5379 241.481 13.3687 241.481 13.1782ZM247.328 15.127C246.85 15.127 246.416 15.0465 246.027 14.8857C245.642 14.7207 245.31 14.4901 245.03 14.1938C244.755 13.8976 244.544 13.5464 244.396 13.1401C244.247 12.7339 244.173 12.2896 244.173 11.8071V11.5405C244.173 10.9819 244.256 10.4847 244.421 10.0488C244.586 9.60872 244.81 9.23633 245.094 8.93164C245.377 8.62695 245.699 8.39632 246.059 8.23975C246.418 8.08317 246.791 8.00488 247.176 8.00488C247.667 8.00488 248.09 8.08952 248.445 8.25879C248.805 8.42806 249.099 8.66504 249.328 8.96973C249.556 9.27018 249.725 9.62565 249.835 10.0361C249.946 10.4424 250.001 10.8867 250.001 11.3691V11.896H244.872V10.9375H248.826V10.8486C248.809 10.5439 248.746 10.2477 248.636 9.95996C248.53 9.6722 248.361 9.43522 248.128 9.24902C247.895 9.06283 247.578 8.96973 247.176 8.96973C246.909 8.96973 246.664 9.02686 246.439 9.14111C246.215 9.25114 246.023 9.41618 245.862 9.63623C245.701 9.85628 245.576 10.125 245.487 10.4424C245.398 10.7598 245.354 11.1258 245.354 11.5405V11.8071C245.354 12.133 245.398 12.4398 245.487 12.7275C245.58 13.0111 245.714 13.2607 245.887 13.4766C246.065 13.6924 246.279 13.8617 246.528 13.9844C246.782 14.1071 247.07 14.1685 247.392 14.1685C247.806 14.1685 248.158 14.0838 248.445 13.9146C248.733 13.7453 248.985 13.5189 249.201 13.2354L249.912 13.8003C249.764 14.0246 249.575 14.2383 249.347 14.4414C249.118 14.6445 248.837 14.8096 248.502 14.9365C248.172 15.0635 247.781 15.127 247.328 15.127Z" fill="#ADC9A6"/>
<path d="M343.504 12.207L345.338 5.75781H346.227L345.713 8.26514L343.739 15H342.856L343.504 12.207ZM341.606 5.75781L343.066 12.0801L343.504 15H342.628L340.387 5.75781H341.606ZM348.601 12.0737L350.029 5.75781H351.254L349.02 15H348.144L348.601 12.0737ZM346.36 5.75781L348.144 12.207L348.792 15H347.909L346.005 8.26514L345.484 5.75781H346.36ZM355.362 15.127C354.884 15.127 354.45 15.0465 354.061 14.8857C353.676 14.7207 353.343 14.4901 353.064 14.1938C352.789 13.8976 352.578 13.5464 352.429 13.1401C352.281 12.7339 352.207 12.2896 352.207 11.8071V11.5405C352.207 10.9819 352.29 10.4847 352.455 10.0488C352.62 9.60872 352.844 9.23633 353.128 8.93164C353.411 8.62695 353.733 8.39632 354.092 8.23975C354.452 8.08317 354.825 8.00488 355.21 8.00488C355.701 8.00488 356.124 8.08952 356.479 8.25879C356.839 8.42806 357.133 8.66504 357.362 8.96973C357.59 9.27018 357.759 9.62565 357.869 10.0361C357.979 10.4424 358.034 10.8867 358.034 11.3691V11.896H352.905V10.9375H356.86V10.8486C356.843 10.5439 356.78 10.2477 356.67 9.95996C356.564 9.6722 356.395 9.43522 356.162 9.24902C355.929 9.06283 355.612 8.96973 355.21 8.96973C354.943 8.96973 354.698 9.02686 354.473 9.14111C354.249 9.25114 354.057 9.41618 353.896 9.63623C353.735 9.85628 353.61 10.125 353.521 10.4424C353.432 10.7598 353.388 11.1258 353.388 11.5405V11.8071C353.388 12.133 353.432 12.4398 353.521 12.7275C353.614 13.0111 353.748 13.2607 353.921 13.4766C354.099 13.6924 354.313 13.8617 354.562 13.9844C354.816 14.1071 355.104 14.1685 355.426 14.1685C355.84 14.1685 356.191 14.0838 356.479 13.9146C356.767 13.7453 357.019 13.5189 357.235 13.2354L357.946 13.8003C357.797 14.0246 357.609 14.2383 357.381 14.4414C357.152 14.6445 356.871 14.8096 356.536 14.9365C356.206 15.0635 355.815 15.127 355.362 15.127ZM359.679 5.25H360.86V13.667L360.758 15H359.679V5.25ZM365.5 11.5088V11.6421C365.5 12.1414 365.441 12.6048 365.322 13.0322C365.204 13.4554 365.03 13.8236 364.802 14.1367C364.573 14.4499 364.294 14.6932 363.964 14.8667C363.634 15.0402 363.255 15.127 362.828 15.127C362.392 15.127 362.009 15.0529 361.679 14.9048C361.353 14.7524 361.078 14.5345 360.853 14.251C360.629 13.9674 360.449 13.6247 360.314 13.2227C360.183 12.8206 360.092 12.3678 360.041 11.8643V11.2803C360.092 10.7725 360.183 10.3175 360.314 9.91553C360.449 9.51351 360.629 9.17074 360.853 8.88721C361.078 8.59945 361.353 8.38151 361.679 8.2334C362.004 8.08105 362.383 8.00488 362.815 8.00488C363.247 8.00488 363.629 8.08952 363.964 8.25879C364.298 8.42383 364.577 8.66081 364.802 8.96973C365.03 9.27865 365.204 9.64893 365.322 10.0806C365.441 10.508 365.5 10.984 365.5 11.5088ZM364.319 11.6421V11.5088C364.319 11.166 364.288 10.8444 364.224 10.5439C364.161 10.2393 364.059 9.97266 363.919 9.74414C363.78 9.51139 363.596 9.32943 363.367 9.19824C363.139 9.06283 362.857 8.99512 362.523 8.99512C362.227 8.99512 361.969 9.0459 361.748 9.14746C361.533 9.24902 361.349 9.38656 361.196 9.56006C361.044 9.72933 360.919 9.92399 360.822 10.144C360.729 10.3599 360.659 10.5841 360.612 10.8169V12.3467C360.68 12.6429 360.79 12.9285 360.942 13.2036C361.099 13.4744 361.306 13.6966 361.564 13.8701C361.827 14.0436 362.15 14.1304 362.536 14.1304C362.853 14.1304 363.124 14.0669 363.348 13.9399C363.577 13.8088 363.761 13.6289 363.9 13.4004C364.044 13.1719 364.15 12.9074 364.218 12.6069C364.285 12.3065 364.319 11.9849 364.319 11.6421ZM369.017 15H367.843V7.4082C367.843 6.91309 367.934 6.49626 368.116 6.15771C368.302 5.81494 368.569 5.5568 368.916 5.3833C369.267 5.20557 369.692 5.1167 370.192 5.1167C370.378 5.1167 370.611 5.13574 370.89 5.17383C371.173 5.21191 371.474 5.26058 371.791 5.31982C372.113 5.37907 372.426 5.44043 372.731 5.50391L372.185 6.35449C371.783 6.27832 371.421 6.22119 371.099 6.18311C370.778 6.14079 370.505 6.11963 370.28 6.11963C370.005 6.11963 369.773 6.17041 369.582 6.27197C369.396 6.3693 369.254 6.51318 369.157 6.70361C369.064 6.89404 369.017 7.12891 369.017 7.4082V15ZM371.556 15V5.50391H372.731V15H371.556ZM370.477 8.13184V9.0332H366.757V8.13184H370.477ZM374.623 11.6421V11.4961C374.623 11.001 374.695 10.5418 374.839 10.1187C374.983 9.69124 375.19 9.32096 375.461 9.00781C375.732 8.69043 376.06 8.44499 376.445 8.27148C376.83 8.09375 377.261 8.00488 377.74 8.00488C378.222 8.00488 378.656 8.09375 379.041 8.27148C379.43 8.44499 379.76 8.69043 380.031 9.00781C380.306 9.32096 380.516 9.69124 380.66 10.1187C380.803 10.5418 380.875 11.001 380.875 11.4961V11.6421C380.875 12.1372 380.803 12.5964 380.66 13.0195C380.516 13.4427 380.306 13.813 380.031 14.1304C379.76 14.4435 379.432 14.689 379.047 14.8667C378.666 15.0402 378.235 15.127 377.752 15.127C377.27 15.127 376.836 15.0402 376.451 14.8667C376.066 14.689 375.736 14.4435 375.461 14.1304C375.19 13.813 374.983 13.4427 374.839 13.0195C374.695 12.5964 374.623 12.1372 374.623 11.6421ZM375.797 11.4961V11.6421C375.797 11.9849 375.837 12.3086 375.918 12.6133C375.998 12.9137 376.119 13.1803 376.28 13.4131C376.445 13.6458 376.65 13.8299 376.895 13.9653C377.141 14.0965 377.426 14.1621 377.752 14.1621C378.074 14.1621 378.355 14.0965 378.597 13.9653C378.842 13.8299 379.045 13.6458 379.206 13.4131C379.367 13.1803 379.487 12.9137 379.568 12.6133C379.652 12.3086 379.695 11.9849 379.695 11.6421V11.4961C379.695 11.1576 379.652 10.8381 379.568 10.5376C379.487 10.2329 379.365 9.96419 379.2 9.73145C379.039 9.49447 378.836 9.30827 378.59 9.17285C378.349 9.03743 378.065 8.96973 377.74 8.96973C377.418 8.96973 377.134 9.03743 376.889 9.17285C376.648 9.30827 376.445 9.49447 376.28 9.73145C376.119 9.96419 375.998 10.2329 375.918 10.5376C375.837 10.8381 375.797 11.1576 375.797 11.4961ZM384.367 13.7812L386.132 8.13184H386.906L386.754 9.25537L384.958 15H384.202L384.367 13.7812ZM383.18 8.13184L384.685 13.8447L384.793 15H383.999L382.006 8.13184H383.18ZM388.595 13.8003L390.029 8.13184H391.197L389.204 15H388.417L388.595 13.8003ZM387.078 8.13184L388.804 13.686L389.001 15H388.252L386.405 9.24268L386.253 8.13184H387.078Z" fill="#ADC9A6"/>
<path d="M84.2217 6.04688V17.8457H83.2031V6.04688H84.2217ZM96.1088 11.9121H97.1069C97.1069 12.6276 96.9018 13.1654 96.4916 13.5254C96.086 13.8809 95.5346 14.0586 94.8373 14.0586C94.3543 14.0586 93.935 13.9469 93.5795 13.7236C93.2286 13.5003 92.9552 13.1904 92.7592 12.7939C92.5678 12.3975 92.4721 11.9372 92.4721 11.4131V10.627C92.4721 10.1029 92.5678 9.64258 92.7592 9.24609C92.9552 8.84961 93.2286 8.53971 93.5795 8.31641C93.935 8.0931 94.3543 7.98145 94.8373 7.98145C95.5346 7.98145 96.0883 8.15918 96.4985 8.51465C96.9086 8.87012 97.1137 9.4056 97.1137 10.1211H96.1157C96.1157 9.66992 96.0063 9.34635 95.7875 9.15039C95.5733 8.95443 95.2566 8.85645 94.8373 8.85645C94.5366 8.85645 94.2836 8.93164 94.0786 9.08203C93.8735 9.23242 93.7185 9.44206 93.6137 9.71094C93.5089 9.97526 93.4565 10.2783 93.4565 10.6201V11.4131C93.4565 11.7594 93.5089 12.0671 93.6137 12.3359C93.7185 12.6003 93.8735 12.8076 94.0786 12.958C94.2836 13.1084 94.5366 13.1836 94.8373 13.1836C95.2566 13.1836 95.5733 13.0856 95.7875 12.8896C96.0017 12.6937 96.1088 12.3678 96.1088 11.9121ZM90.8657 11.0166C90.8657 11.6227 90.9705 12.1878 91.1801 12.7119C91.3898 13.236 91.6814 13.694 92.0551 14.0859C92.4288 14.4779 92.8618 14.7832 93.3539 15.002C93.8461 15.2207 94.3725 15.3301 94.933 15.3301C95.4936 15.3301 96.0177 15.2207 96.5053 15.002C96.9975 14.7832 97.4282 14.4779 97.7973 14.0859C98.171 13.694 98.4627 13.236 98.6723 12.7119C98.8819 12.1878 98.9868 11.6227 98.9868 11.0166C98.9868 10.4059 98.8819 9.84082 98.6723 9.32129C98.4627 8.80176 98.171 8.34831 97.7973 7.96094C97.4282 7.56901 96.9975 7.26595 96.5053 7.05176C96.0177 6.83301 95.4936 6.72363 94.933 6.72363C94.3725 6.72363 93.8461 6.83301 93.3539 7.05176C92.8618 7.26595 92.4288 7.56901 92.0551 7.96094C91.6814 8.34831 91.3898 8.80176 91.1801 9.32129C90.9705 9.84082 90.8657 10.4059 90.8657 11.0166ZM90.0795 11.0166C90.0795 10.292 90.2049 9.61979 90.4555 9C90.7062 8.38021 91.0548 7.84017 91.5014 7.37988C91.948 6.91504 92.463 6.55501 93.0463 6.2998C93.6342 6.04004 94.2631 5.91016 94.933 5.91016C95.603 5.91016 96.2296 6.04004 96.8129 6.2998C97.4008 6.55501 97.9158 6.91504 98.3579 7.37988C98.8045 7.84017 99.1531 8.38021 99.4037 9C99.6544 9.61979 99.7797 10.292 99.7797 11.0166C99.7797 11.7412 99.6544 12.4134 99.4037 13.0332C99.1531 13.653 98.8045 14.1976 98.3579 14.667C97.9158 15.1318 97.4008 15.4941 96.8129 15.7539C96.2296 16.0137 95.603 16.1436 94.933 16.1436C94.2631 16.1436 93.6342 16.0137 93.0463 15.7539C92.463 15.4941 91.948 15.1318 91.5014 14.667C91.0548 14.1976 90.7062 13.653 90.4555 13.0332C90.2049 12.4134 90.0795 11.7412 90.0795 11.0166ZM109.049 6.04688V16H107.75V6.04688H109.049ZM112.248 6.04688V7.12695H104.558V6.04688H112.248ZM116.199 16.1367C115.684 16.1367 115.217 16.0501 114.797 15.877C114.383 15.6992 114.025 15.4508 113.724 15.1318C113.428 14.8128 113.2 14.4346 113.041 13.9971C112.881 13.5596 112.801 13.0811 112.801 12.5615V12.2744C112.801 11.6729 112.89 11.1374 113.068 10.668C113.246 10.194 113.487 9.79297 113.793 9.46484C114.098 9.13672 114.444 8.88835 114.832 8.71973C115.219 8.55111 115.62 8.4668 116.035 8.4668C116.563 8.4668 117.019 8.55794 117.402 8.74023C117.789 8.92253 118.106 9.17773 118.352 9.50586C118.598 9.82943 118.781 10.2122 118.899 10.6543C119.018 11.0918 119.077 11.5703 119.077 12.0898V12.6572H113.553V11.625H117.812V11.5293C117.794 11.2012 117.726 10.8822 117.607 10.5723C117.493 10.2624 117.311 10.0072 117.06 9.80664C116.81 9.60612 116.468 9.50586 116.035 9.50586C115.748 9.50586 115.483 9.56738 115.242 9.69043C115 9.80892 114.793 9.98665 114.62 10.2236C114.447 10.4606 114.312 10.75 114.216 11.0918C114.121 11.4336 114.073 11.8278 114.073 12.2744V12.5615C114.073 12.9124 114.121 13.2428 114.216 13.5527C114.317 13.8581 114.46 14.127 114.647 14.3594C114.838 14.5918 115.069 14.7741 115.337 14.9062C115.611 15.0384 115.921 15.1045 116.267 15.1045C116.714 15.1045 117.092 15.0133 117.402 14.8311C117.712 14.6488 117.983 14.4049 118.215 14.0996L118.981 14.708C118.822 14.9495 118.619 15.1797 118.373 15.3984C118.127 15.6172 117.824 15.7949 117.463 15.9316C117.108 16.0684 116.686 16.1367 116.199 16.1367ZM122.091 10.0732V16H120.82V8.60352H122.023L122.091 10.0732ZM121.831 12.0215L121.243 12.001C121.248 11.4951 121.314 11.028 121.442 10.5996C121.569 10.1667 121.758 9.79069 122.009 9.47168C122.26 9.15267 122.572 8.90658 122.946 8.7334C123.319 8.55566 123.752 8.4668 124.244 8.4668C124.591 8.4668 124.91 8.51693 125.201 8.61719C125.493 8.71289 125.746 8.86556 125.96 9.0752C126.174 9.28483 126.341 9.55371 126.459 9.88184C126.578 10.21 126.637 10.6064 126.637 11.0713V16H125.372V11.1328C125.372 10.7454 125.306 10.4355 125.174 10.2031C125.047 9.9707 124.864 9.80208 124.627 9.69727C124.39 9.58789 124.112 9.5332 123.793 9.5332C123.42 9.5332 123.107 9.59928 122.857 9.73145C122.606 9.86361 122.406 10.0459 122.255 10.2783C122.105 10.5107 121.995 10.7773 121.927 11.0781C121.863 11.3743 121.831 11.6888 121.831 12.0215ZM126.623 11.3242L125.776 11.584C125.78 11.1784 125.846 10.7887 125.974 10.415C126.106 10.0413 126.295 9.70866 126.541 9.41699C126.792 9.12533 127.1 8.89518 127.464 8.72656C127.829 8.55339 128.246 8.4668 128.715 8.4668C129.112 8.4668 129.463 8.51921 129.768 8.62402C130.078 8.72884 130.338 8.89062 130.547 9.10938C130.761 9.32357 130.923 9.59928 131.033 9.93652C131.142 10.2738 131.197 10.6748 131.197 11.1396V16H129.925V11.126C129.925 10.7113 129.859 10.39 129.727 10.1621C129.599 9.92969 129.417 9.7679 129.18 9.67676C128.948 9.58105 128.67 9.5332 128.346 9.5332C128.068 9.5332 127.822 9.58105 127.608 9.67676C127.394 9.77246 127.214 9.90462 127.068 10.0732C126.922 10.2373 126.81 10.4264 126.733 10.6406C126.66 10.8548 126.623 11.0827 126.623 11.3242ZM134.655 10.0254V18.8438H133.384V8.60352H134.546L134.655 10.0254ZM139.639 12.2402V12.3838C139.639 12.9215 139.575 13.4206 139.447 13.8809C139.32 14.3366 139.133 14.7331 138.887 15.0703C138.645 15.4076 138.347 15.6696 137.991 15.8564C137.636 16.0433 137.228 16.1367 136.768 16.1367C136.298 16.1367 135.884 16.0592 135.523 15.9043C135.163 15.7493 134.858 15.5238 134.607 15.2275C134.357 14.9313 134.156 14.5758 134.006 14.1611C133.86 13.7464 133.76 13.2793 133.705 12.7598V11.9941C133.76 11.4473 133.862 10.9574 134.013 10.5244C134.163 10.0915 134.361 9.72233 134.607 9.41699C134.858 9.1071 135.161 8.8724 135.517 8.71289C135.872 8.54883 136.282 8.4668 136.747 8.4668C137.212 8.4668 137.624 8.55794 137.984 8.74023C138.344 8.91797 138.647 9.17318 138.894 9.50586C139.14 9.83854 139.324 10.2373 139.447 10.7021C139.575 11.1624 139.639 11.6751 139.639 12.2402ZM138.367 12.3838V12.2402C138.367 11.8711 138.328 11.5247 138.251 11.2012C138.174 10.873 138.053 10.5859 137.889 10.3398C137.729 10.0892 137.524 9.89323 137.273 9.75195C137.023 9.60612 136.724 9.5332 136.378 9.5332C136.059 9.5332 135.781 9.58789 135.544 9.69727C135.312 9.80664 135.113 9.95475 134.949 10.1416C134.785 10.3239 134.651 10.5335 134.546 10.7705C134.446 11.0029 134.37 11.2445 134.32 11.4951V13.2656C134.411 13.5846 134.539 13.8854 134.703 14.168C134.867 14.446 135.086 14.6715 135.359 14.8447C135.633 15.0133 135.977 15.0977 136.392 15.0977C136.733 15.0977 137.027 15.027 137.273 14.8857C137.524 14.7399 137.729 14.5417 137.889 14.291C138.053 14.0404 138.174 13.7533 138.251 13.4297C138.328 13.1016 138.367 12.7529 138.367 12.3838ZM142.906 5.5V16H141.635V5.5H142.906ZM149.578 14.7354V10.9277C149.578 10.6361 149.518 10.3831 149.4 10.1689C149.286 9.9502 149.113 9.78158 148.88 9.66309C148.648 9.5446 148.361 9.48535 148.019 9.48535C147.7 9.48535 147.42 9.54004 147.178 9.64941C146.941 9.75879 146.754 9.90234 146.618 10.0801C146.485 10.2578 146.419 10.4492 146.419 10.6543H145.155C145.155 10.39 145.223 10.1279 145.36 9.86816C145.497 9.6084 145.693 9.3737 145.948 9.16406C146.208 8.94987 146.517 8.78125 146.877 8.6582C147.242 8.5306 147.648 8.4668 148.094 8.4668C148.632 8.4668 149.106 8.55794 149.516 8.74023C149.931 8.92253 150.254 9.19824 150.487 9.56738C150.724 9.93197 150.842 10.39 150.842 10.9414V14.3867C150.842 14.6328 150.863 14.8949 150.904 15.1729C150.949 15.4508 151.015 15.6901 151.102 15.8906V16H149.783C149.719 15.8542 149.669 15.6605 149.632 15.4189C149.596 15.1729 149.578 14.945 149.578 14.7354ZM149.796 11.5156L149.81 12.4043H148.532C148.172 12.4043 147.85 12.4339 147.568 12.4932C147.285 12.5479 147.048 12.6322 146.857 12.7461C146.666 12.86 146.52 13.0036 146.419 13.1768C146.319 13.3454 146.269 13.5436 146.269 13.7715C146.269 14.0039 146.321 14.2158 146.426 14.4072C146.531 14.5986 146.688 14.7513 146.898 14.8652C147.112 14.9746 147.374 15.0293 147.684 15.0293C148.071 15.0293 148.413 14.9473 148.709 14.7832C149.006 14.6191 149.24 14.4186 149.414 14.1816C149.591 13.9447 149.687 13.7145 149.701 13.4912L150.241 14.0996C150.209 14.291 150.122 14.5029 149.981 14.7354C149.84 14.9678 149.651 15.1911 149.414 15.4053C149.181 15.6149 148.903 15.7904 148.58 15.9316C148.261 16.0684 147.901 16.1367 147.499 16.1367C146.998 16.1367 146.558 16.0387 146.18 15.8428C145.806 15.6468 145.515 15.3848 145.305 15.0566C145.1 14.724 144.998 14.3525 144.998 13.9424C144.998 13.5459 145.075 13.1973 145.23 12.8965C145.385 12.5911 145.608 12.3382 145.9 12.1377C146.192 11.9326 146.542 11.7777 146.953 11.6729C147.363 11.568 147.821 11.5156 148.327 11.5156H149.796ZM156.208 8.60352V9.57422H152.209V8.60352H156.208ZM153.563 6.80566H154.827V14.168C154.827 14.4186 154.866 14.6077 154.944 14.7354C155.021 14.863 155.121 14.9473 155.244 14.9883C155.367 15.0293 155.5 15.0498 155.641 15.0498C155.746 15.0498 155.855 15.0407 155.969 15.0225C156.087 14.9997 156.176 14.9814 156.236 14.9678L156.242 16C156.142 16.0319 156.01 16.0615 155.846 16.0889C155.686 16.1208 155.493 16.1367 155.265 16.1367C154.955 16.1367 154.67 16.0752 154.41 15.9521C154.151 15.8291 153.943 15.624 153.788 15.3369C153.638 15.0452 153.563 14.6533 153.563 14.1611V6.80566ZM161.041 16.1367C160.526 16.1367 160.059 16.0501 159.64 15.877C159.225 15.6992 158.867 15.4508 158.566 15.1318C158.27 14.8128 158.042 14.4346 157.883 13.9971C157.723 13.5596 157.643 13.0811 157.643 12.5615V12.2744C157.643 11.6729 157.732 11.1374 157.91 10.668C158.088 10.194 158.329 9.79297 158.635 9.46484C158.94 9.13672 159.286 8.88835 159.674 8.71973C160.061 8.55111 160.462 8.4668 160.877 8.4668C161.406 8.4668 161.861 8.55794 162.244 8.74023C162.631 8.92253 162.948 9.17773 163.194 9.50586C163.44 9.82943 163.623 10.2122 163.741 10.6543C163.86 11.0918 163.919 11.5703 163.919 12.0898V12.6572H158.395V11.625H162.654V11.5293C162.636 11.2012 162.568 10.8822 162.449 10.5723C162.335 10.2624 162.153 10.0072 161.902 9.80664C161.652 9.60612 161.31 9.50586 160.877 9.50586C160.59 9.50586 160.325 9.56738 160.084 9.69043C159.842 9.80892 159.635 9.98665 159.462 10.2236C159.289 10.4606 159.154 10.75 159.059 11.0918C158.963 11.4336 158.915 11.8278 158.915 12.2744V12.5615C158.915 12.9124 158.963 13.2428 159.059 13.5527C159.159 13.8581 159.302 14.127 159.489 14.3594C159.681 14.5918 159.911 14.7741 160.18 14.9062C160.453 15.0384 160.763 15.1045 161.109 15.1045C161.556 15.1045 161.934 15.0133 162.244 14.8311C162.554 14.6488 162.825 14.4049 163.058 14.0996L163.823 14.708C163.664 14.9495 163.461 15.1797 163.215 15.3984C162.969 15.6172 162.666 15.7949 162.306 15.9316C161.95 16.0684 161.529 16.1367 161.041 16.1367ZM169.421 5.5H170.693V14.5645L170.583 16H169.421V5.5ZM175.69 12.2402V12.3838C175.69 12.9215 175.626 13.4206 175.498 13.8809C175.371 14.3366 175.184 14.7331 174.938 15.0703C174.692 15.4076 174.391 15.6696 174.036 15.8564C173.68 16.0433 173.272 16.1367 172.812 16.1367C172.342 16.1367 171.93 16.057 171.575 15.8975C171.224 15.7334 170.927 15.4987 170.686 15.1934C170.444 14.888 170.251 14.5189 170.105 14.0859C169.964 13.653 169.866 13.1654 169.811 12.623V11.9941C169.866 11.4473 169.964 10.9574 170.105 10.5244C170.251 10.0915 170.444 9.72233 170.686 9.41699C170.927 9.1071 171.224 8.8724 171.575 8.71289C171.925 8.54883 172.333 8.4668 172.798 8.4668C173.263 8.4668 173.675 8.55794 174.036 8.74023C174.396 8.91797 174.696 9.17318 174.938 9.50586C175.184 9.83854 175.371 10.2373 175.498 10.7021C175.626 11.1624 175.69 11.6751 175.69 12.2402ZM174.418 12.3838V12.2402C174.418 11.8711 174.384 11.5247 174.316 11.2012C174.247 10.873 174.138 10.5859 173.988 10.3398C173.837 10.0892 173.639 9.89323 173.393 9.75195C173.147 9.60612 172.844 9.5332 172.484 9.5332C172.165 9.5332 171.887 9.58789 171.65 9.69727C171.417 9.80664 171.219 9.95475 171.055 10.1416C170.891 10.3239 170.757 10.5335 170.652 10.7705C170.551 11.0029 170.476 11.2445 170.426 11.4951V13.1426C170.499 13.4616 170.618 13.7692 170.782 14.0654C170.95 14.3571 171.174 14.5964 171.452 14.7832C171.734 14.9701 172.083 15.0635 172.497 15.0635C172.839 15.0635 173.131 14.9951 173.372 14.8584C173.619 14.7171 173.817 14.5234 173.967 14.2773C174.122 14.0312 174.236 13.7464 174.309 13.4229C174.382 13.0993 174.418 12.7529 174.418 12.3838ZM179.566 15.2344L181.623 8.60352H182.977L180.01 17.1416C179.941 17.3239 179.85 17.5199 179.736 17.7295C179.627 17.9437 179.486 18.1465 179.313 18.3379C179.139 18.5293 178.93 18.6842 178.684 18.8027C178.442 18.9258 178.153 18.9873 177.816 18.9873C177.715 18.9873 177.588 18.9736 177.433 18.9463C177.278 18.9189 177.168 18.8962 177.105 18.8779L177.098 17.8525C177.134 17.8571 177.191 17.8617 177.269 17.8662C177.351 17.8753 177.408 17.8799 177.44 17.8799C177.727 17.8799 177.97 17.8411 178.171 17.7637C178.371 17.6908 178.54 17.5654 178.677 17.3877C178.818 17.2145 178.939 16.9753 179.039 16.6699L179.566 15.2344ZM178.055 8.60352L179.976 14.3457L180.304 15.6787L179.395 16.1436L176.674 8.60352H178.055Z" fill="white"/>
<path d="M256.596 11.249V12.2881H253.26V11.249H256.596ZM265.728 12.0967H263.069V11.0234H265.728C266.243 11.0234 266.66 10.9414 266.979 10.7773C267.298 10.6133 267.53 10.3854 267.676 10.0938C267.827 9.80208 267.902 9.4694 267.902 9.0957C267.902 8.75391 267.827 8.43262 267.676 8.13184C267.53 7.83105 267.298 7.58952 266.979 7.40723C266.66 7.22038 266.243 7.12695 265.728 7.12695H263.376V16H262.057V6.04688H265.728C266.48 6.04688 267.116 6.17676 267.635 6.43652C268.155 6.69629 268.549 7.05632 268.818 7.5166C269.087 7.97233 269.221 8.49414 269.221 9.08203C269.221 9.72005 269.087 10.2646 268.818 10.7158C268.549 11.167 268.155 11.5111 267.635 11.748C267.116 11.9805 266.48 12.0967 265.728 12.0967ZM270.547 12.3838V12.2266C270.547 11.6934 270.625 11.1989 270.779 10.7432C270.934 10.2829 271.158 9.88411 271.449 9.54688C271.741 9.20508 272.094 8.94076 272.509 8.75391C272.924 8.5625 273.389 8.4668 273.903 8.4668C274.423 8.4668 274.89 8.5625 275.305 8.75391C275.724 8.94076 276.08 9.20508 276.371 9.54688C276.667 9.88411 276.893 10.2829 277.048 10.7432C277.203 11.1989 277.28 11.6934 277.28 12.2266V12.3838C277.28 12.917 277.203 13.4115 277.048 13.8672C276.893 14.3229 276.667 14.7217 276.371 15.0635C276.08 15.4007 275.726 15.665 275.312 15.8564C274.902 16.0433 274.437 16.1367 273.917 16.1367C273.398 16.1367 272.93 16.0433 272.516 15.8564C272.101 15.665 271.746 15.4007 271.449 15.0635C271.158 14.7217 270.934 14.3229 270.779 13.8672C270.625 13.4115 270.547 12.917 270.547 12.3838ZM271.812 12.2266V12.3838C271.812 12.7529 271.855 13.1016 271.942 13.4297C272.028 13.7533 272.158 14.0404 272.331 14.291C272.509 14.5417 272.73 14.7399 272.994 14.8857C273.259 15.027 273.566 15.0977 273.917 15.0977C274.264 15.0977 274.567 15.027 274.826 14.8857C275.091 14.7399 275.309 14.5417 275.483 14.291C275.656 14.0404 275.786 13.7533 275.872 13.4297C275.963 13.1016 276.009 12.7529 276.009 12.3838V12.2266C276.009 11.862 275.963 11.5179 275.872 11.1943C275.786 10.8662 275.653 10.5768 275.476 10.3262C275.303 10.071 275.084 9.87044 274.819 9.72461C274.56 9.57878 274.254 9.50586 273.903 9.50586C273.557 9.50586 273.252 9.57878 272.987 9.72461C272.728 9.87044 272.509 10.071 272.331 10.3262C272.158 10.5768 272.028 10.8662 271.942 11.1943C271.855 11.5179 271.812 11.862 271.812 12.2266ZM281.019 14.6875L282.92 8.60352H283.754L283.59 9.81348L281.655 16H280.842L281.019 14.6875ZM279.741 8.60352L281.361 14.7559L281.477 16H280.623L278.476 8.60352H279.741ZM285.572 14.708L287.117 8.60352H288.375L286.228 16H285.381L285.572 14.708ZM283.938 8.60352L285.798 14.585L286.01 16H285.203L283.214 9.7998L283.05 8.60352H283.938ZM293.023 16.1367C292.508 16.1367 292.041 16.0501 291.622 15.877C291.207 15.6992 290.849 15.4508 290.548 15.1318C290.252 14.8128 290.024 14.4346 289.865 13.9971C289.705 13.5596 289.626 13.0811 289.626 12.5615V12.2744C289.626 11.6729 289.714 11.1374 289.892 10.668C290.07 10.194 290.311 9.79297 290.617 9.46484C290.922 9.13672 291.268 8.88835 291.656 8.71973C292.043 8.55111 292.444 8.4668 292.859 8.4668C293.388 8.4668 293.843 8.55794 294.226 8.74023C294.614 8.92253 294.93 9.17773 295.176 9.50586C295.422 9.82943 295.605 10.2122 295.723 10.6543C295.842 11.0918 295.901 11.5703 295.901 12.0898V12.6572H290.378V11.625H294.636V11.5293C294.618 11.2012 294.55 10.8822 294.431 10.5723C294.317 10.2624 294.135 10.0072 293.884 9.80664C293.634 9.60612 293.292 9.50586 292.859 9.50586C292.572 9.50586 292.308 9.56738 292.066 9.69043C291.824 9.80892 291.617 9.98665 291.444 10.2236C291.271 10.4606 291.136 10.75 291.041 11.0918C290.945 11.4336 290.897 11.8278 290.897 12.2744V12.5615C290.897 12.9124 290.945 13.2428 291.041 13.5527C291.141 13.8581 291.284 14.127 291.471 14.3594C291.663 14.5918 291.893 14.7741 292.162 14.9062C292.435 15.0384 292.745 15.1045 293.091 15.1045C293.538 15.1045 293.916 15.0133 294.226 14.8311C294.536 14.6488 294.807 14.4049 295.04 14.0996L295.805 14.708C295.646 14.9495 295.443 15.1797 295.197 15.3984C294.951 15.6172 294.648 15.7949 294.288 15.9316C293.932 16.0684 293.511 16.1367 293.023 16.1367ZM298.922 9.76562V16H297.658V8.60352H298.888L298.922 9.76562ZM301.233 8.5625L301.226 9.73828C301.121 9.71549 301.021 9.70182 300.925 9.69727C300.834 9.68815 300.729 9.68359 300.611 9.68359C300.319 9.68359 300.062 9.72917 299.838 9.82031C299.615 9.91146 299.426 10.0391 299.271 10.2031C299.116 10.3672 298.993 10.5632 298.902 10.791C298.815 11.0143 298.758 11.2604 298.731 11.5293L298.375 11.7344C298.375 11.2878 298.419 10.8685 298.505 10.4766C298.596 10.0846 298.735 9.73828 298.922 9.4375C299.109 9.13216 299.346 8.89518 299.633 8.72656C299.925 8.55339 300.271 8.4668 300.672 8.4668C300.763 8.4668 300.868 8.47819 300.987 8.50098C301.105 8.51921 301.187 8.53971 301.233 8.5625ZM305.614 16.1367C305.099 16.1367 304.632 16.0501 304.213 15.877C303.798 15.6992 303.44 15.4508 303.14 15.1318C302.843 14.8128 302.616 14.4346 302.456 13.9971C302.297 13.5596 302.217 13.0811 302.217 12.5615V12.2744C302.217 11.6729 302.306 11.1374 302.483 10.668C302.661 10.194 302.903 9.79297 303.208 9.46484C303.513 9.13672 303.86 8.88835 304.247 8.71973C304.634 8.55111 305.036 8.4668 305.45 8.4668C305.979 8.4668 306.435 8.55794 306.817 8.74023C307.205 8.92253 307.522 9.17773 307.768 9.50586C308.014 9.82943 308.196 10.2122 308.314 10.6543C308.433 11.0918 308.492 11.5703 308.492 12.0898V12.6572H302.969V11.625H307.228V11.5293C307.209 11.2012 307.141 10.8822 307.022 10.5723C306.909 10.2624 306.726 10.0072 306.476 9.80664C306.225 9.60612 305.883 9.50586 305.45 9.50586C305.163 9.50586 304.899 9.56738 304.657 9.69043C304.416 9.80892 304.208 9.98665 304.035 10.2236C303.862 10.4606 303.728 10.75 303.632 11.0918C303.536 11.4336 303.488 11.8278 303.488 12.2744V12.5615C303.488 12.9124 303.536 13.2428 303.632 13.5527C303.732 13.8581 303.876 14.127 304.063 14.3594C304.254 14.5918 304.484 14.7741 304.753 14.9062C305.026 15.0384 305.336 15.1045 305.683 15.1045C306.129 15.1045 306.508 15.0133 306.817 14.8311C307.127 14.6488 307.398 14.4049 307.631 14.0996L308.397 14.708C308.237 14.9495 308.034 15.1797 307.788 15.3984C307.542 15.6172 307.239 15.7949 306.879 15.9316C306.523 16.0684 306.102 16.1367 305.614 16.1367ZM314.911 14.5645V5.5H316.182V16H315.02L314.911 14.5645ZM309.934 12.3838V12.2402C309.934 11.6751 310.003 11.1624 310.139 10.7021C310.281 10.2373 310.479 9.83854 310.734 9.50586C310.994 9.17318 311.302 8.91797 311.657 8.74023C312.017 8.55794 312.418 8.4668 312.86 8.4668C313.325 8.4668 313.731 8.54883 314.077 8.71289C314.428 8.8724 314.724 9.1071 314.966 9.41699C315.212 9.72233 315.405 10.0915 315.547 10.5244C315.688 10.9574 315.786 11.4473 315.841 11.9941V12.623C315.79 13.1654 315.692 13.653 315.547 14.0859C315.405 14.5189 315.212 14.888 314.966 15.1934C314.724 15.4987 314.428 15.7334 314.077 15.8975C313.726 16.057 313.316 16.1367 312.846 16.1367C312.414 16.1367 312.017 16.0433 311.657 15.8564C311.302 15.6696 310.994 15.4076 310.734 15.0703C310.479 14.7331 310.281 14.3366 310.139 13.8809C310.003 13.4206 309.934 12.9215 309.934 12.3838ZM311.206 12.2402V12.3838C311.206 12.7529 311.242 13.0993 311.315 13.4229C311.393 13.7464 311.511 14.0312 311.671 14.2773C311.83 14.5234 312.033 14.7171 312.279 14.8584C312.525 14.9951 312.819 15.0635 313.161 15.0635C313.58 15.0635 313.924 14.9746 314.193 14.7969C314.467 14.6191 314.685 14.3844 314.849 14.0928C315.013 13.8011 315.141 13.4844 315.232 13.1426V11.4951C315.178 11.2445 315.098 11.0029 314.993 10.7705C314.893 10.5335 314.761 10.3239 314.596 10.1416C314.437 9.95475 314.239 9.80664 314.002 9.69727C313.769 9.58789 313.494 9.5332 313.175 9.5332C312.828 9.5332 312.53 9.60612 312.279 9.75195C312.033 9.89323 311.83 10.0892 311.671 10.3398C311.511 10.5859 311.393 10.873 311.315 11.2012C311.242 11.5247 311.206 11.8711 311.206 12.2402ZM322.177 5.5H323.448V14.5645L323.339 16H322.177V5.5ZM328.446 12.2402V12.3838C328.446 12.9215 328.382 13.4206 328.254 13.8809C328.127 14.3366 327.94 14.7331 327.694 15.0703C327.447 15.4076 327.147 15.6696 326.791 15.8564C326.436 16.0433 326.028 16.1367 325.568 16.1367C325.098 16.1367 324.686 16.057 324.33 15.8975C323.979 15.7334 323.683 15.4987 323.442 15.1934C323.2 14.888 323.006 14.5189 322.861 14.0859C322.719 13.653 322.621 13.1654 322.567 12.623V11.9941C322.621 11.4473 322.719 10.9574 322.861 10.5244C323.006 10.0915 323.2 9.72233 323.442 9.41699C323.683 9.1071 323.979 8.8724 324.33 8.71289C324.681 8.54883 325.089 8.4668 325.554 8.4668C326.019 8.4668 326.431 8.55794 326.791 8.74023C327.151 8.91797 327.452 9.17318 327.694 9.50586C327.94 9.83854 328.127 10.2373 328.254 10.7021C328.382 11.1624 328.446 11.6751 328.446 12.2402ZM327.174 12.3838V12.2402C327.174 11.8711 327.14 11.5247 327.071 11.2012C327.003 10.873 326.894 10.5859 326.743 10.3398C326.593 10.0892 326.395 9.89323 326.149 9.75195C325.903 9.60612 325.599 9.5332 325.239 9.5332C324.92 9.5332 324.642 9.58789 324.405 9.69727C324.173 9.80664 323.975 9.95475 323.811 10.1416C323.647 10.3239 323.512 10.5335 323.407 10.7705C323.307 11.0029 323.232 11.2445 323.182 11.4951V13.1426C323.255 13.4616 323.373 13.7692 323.537 14.0654C323.706 14.3571 323.929 14.5964 324.207 14.7832C324.49 14.9701 324.838 15.0635 325.253 15.0635C325.595 15.0635 325.887 14.9951 326.128 14.8584C326.374 14.7171 326.572 14.5234 326.723 14.2773C326.878 14.0312 326.992 13.7464 327.065 13.4229C327.138 13.0993 327.174 12.7529 327.174 12.3838ZM332.321 15.2344L334.379 8.60352H335.732L332.766 17.1416C332.697 17.3239 332.606 17.5199 332.492 17.7295C332.383 17.9437 332.241 18.1465 332.068 18.3379C331.895 18.5293 331.685 18.6842 331.439 18.8027C331.198 18.9258 330.908 18.9873 330.571 18.9873C330.471 18.9873 330.343 18.9736 330.188 18.9463C330.033 18.9189 329.924 18.8962 329.86 18.8779L329.853 17.8525C329.89 17.8571 329.947 17.8617 330.024 17.8662C330.106 17.8753 330.163 17.8799 330.195 17.8799C330.482 17.8799 330.726 17.8411 330.927 17.7637C331.127 17.6908 331.296 17.5654 331.433 17.3877C331.574 17.2145 331.695 16.9753 331.795 16.6699L332.321 15.2344ZM330.81 8.60352L332.731 14.3457L333.059 15.6787L332.15 16.1436L329.43 8.60352H330.81Z" fill="white"/>
<path d="M16.9112 1.91699H19.4595V21.0837H16.9112V1.91699Z" fill="#84A17D"/>
<path d="M0 5.51074H14.3629V10.3024H0V5.51074Z" fill="#84A17D"/>
<path d="M5.44403 12.6982H14.3629V17.4899H5.44403V12.6982Z" fill="#84A17D"/>
<path d="M29.4609 18.1459H26.7907L32.131 3.54492H34.7809L40.1212 18.1459H37.3904L36.1969 14.7703H30.6746L29.4609 18.1459ZM33.1222 7.89926L31.423 12.6131H35.4485L33.7493 7.89926C33.6953 7.6995 33.6346 7.49978 33.5672 7.30002C33.4998 7.1003 33.4593 6.92718 33.4458 6.7807C33.4189 6.91386 33.3717 7.08698 33.3043 7.30002C33.2503 7.49978 33.1896 7.6995 33.1222 7.89926Z" fill="#F4F5F6"/>
<path d="M43.6949 18.1467H41.2472V3.28613H43.6949V18.1467Z" fill="#F4F5F6"/>
<path d="M45.879 18.1459V8.27884H48.3469V18.1459H45.879ZM47.0927 6.30141C46.6747 6.30141 46.3173 6.16159 46.0207 5.88195C45.7374 5.58899 45.5959 5.23613 45.5959 4.82333C45.5959 4.41054 45.7374 4.06432 46.0207 3.78469C46.3173 3.50505 46.6747 3.36523 47.0927 3.36523C47.5108 3.36523 47.8614 3.50505 48.1446 3.78469C48.4413 4.06432 48.5896 4.41054 48.5896 4.82333C48.5896 5.23613 48.4413 5.58899 48.1446 5.88195C47.8614 6.16159 47.5108 6.30141 47.0927 6.30141Z" fill="#F4F5F6"/>
<path d="M49.9257 12.993C49.9257 12.0342 50.1212 11.182 50.5124 10.4363C50.9166 9.67728 51.4766 9.07808 52.1912 8.63863C52.9059 8.19919 53.7354 7.97949 54.6791 7.97949C55.529 7.97949 56.2573 8.16594 56.8639 8.53878C57.4706 8.89829 57.8958 9.40429 58.1385 10.0568L57.8754 10.2765L58.0777 8.27912H60.3637V17.6469C60.3637 18.7388 60.1477 19.6842 59.7162 20.4832C59.2983 21.2954 58.698 21.9147 57.9157 22.3407C57.1471 22.7802 56.2169 22.9999 55.1243 22.9999C53.695 22.9999 52.5216 22.6204 51.6045 21.8614C50.6875 21.1024 50.148 20.0637 49.9865 18.7455H52.4544C52.5352 19.3846 52.8047 19.884 53.2635 20.2435C53.7353 20.603 54.3556 20.7828 55.1243 20.7828C55.9742 20.7828 56.6484 20.5364 57.1471 20.0438C57.6598 19.5644 57.9157 18.9119 57.9157 18.0863V15.6295L58.1989 15.8892C57.9561 16.515 57.5115 17.0144 56.8639 17.3872C56.2169 17.76 55.4682 17.9465 54.6188 17.9465C53.6745 17.9465 52.8519 17.7335 52.1509 17.3073C51.4493 16.8812 50.9035 16.2953 50.5124 15.5496C50.1212 14.8039 49.9257 13.9517 49.9257 12.993ZM52.4136 12.933C52.4136 13.4923 52.5216 13.9916 52.7376 14.4311C52.9667 14.8572 53.2834 15.1967 53.6882 15.4497C54.0929 15.7027 54.5648 15.8292 55.1043 15.8292C55.6706 15.8292 56.1561 15.7094 56.5604 15.4697C56.9788 15.2167 57.2955 14.8771 57.5115 14.4511C57.7406 14.0116 57.8554 13.5056 57.8554 12.933C57.8554 12.3605 57.7474 11.8677 57.5314 11.4549C57.3159 11.0289 56.9987 10.6959 56.5808 10.4563C56.1761 10.2166 55.6842 10.0967 55.1043 10.0967C54.5512 10.0967 54.0725 10.2232 53.6677 10.4762C53.2635 10.7159 52.9531 11.0488 52.7376 11.4749C52.5216 11.901 52.4136 12.3871 52.4136 12.933Z" fill="#F4F5F6"/>
<path d="M64.981 18.1462H62.513V8.27912H64.7986L65.0009 9.55744C65.3113 9.06476 65.7496 8.6786 66.3159 8.39895C66.8958 8.11931 67.5229 7.97949 68.1971 7.97949C69.4513 7.97949 70.3951 8.34567 71.029 9.07808C71.6765 9.81044 72 10.8091 72 12.0742V18.1462H69.5321V12.6534C69.5321 11.8278 69.3433 11.2153 68.9658 10.8158C68.5883 10.403 68.0755 10.1966 67.4285 10.1966C66.6598 10.1966 66.0595 10.4363 65.628 10.9157C65.1965 11.395 64.981 12.0342 64.981 12.8332V18.1462Z" fill="#F4F5F6"/>
</svg>
